<mxfile host="app.diagrams.net" modified="2023-08-24T00:06:16.424Z" agent="Mozilla/5.0 (Windows NT 10.0; Win64; x64) AppleWebKit/537.36 (KHTML, like Gecko) Chrome/116.0.0.0 Safari/537.36" etag="XNlomnWaDbkAPMPjO6dQ" version="21.6.8" type="github">
  <diagram name="Page-1" id="c4acf3e9-155e-7222-9cf6-157b1a14988f">
    <mxGraphModel dx="1195" dy="625" grid="1" gridSize="10" guides="1" tooltips="1" connect="1" arrows="1" fold="1" page="1" pageScale="1" pageWidth="850" pageHeight="1100" background="none" math="0" shadow="0">
      <root>
        <mxCell id="0" />
        <mxCell id="1" parent="0" />
        <mxCell id="FlfiPi71Q3l0wAVPNReg-3" value="«Annotation»&lt;br&gt;&lt;b&gt;Clock_Modele&lt;/b&gt;" style="html=1;dropTarget=0;whiteSpace=wrap;" vertex="1" parent="1">
          <mxGeometry x="40" y="400" width="385" height="120" as="geometry" />
        </mxCell>
        <mxCell id="FlfiPi71Q3l0wAVPNReg-4" value="" style="shape=module;jettyWidth=8;jettyHeight=4;" vertex="1" parent="FlfiPi71Q3l0wAVPNReg-3">
          <mxGeometry x="1" width="20" height="20" relative="1" as="geometry">
            <mxPoint x="-27" y="7" as="offset" />
          </mxGeometry>
        </mxCell>
        <mxCell id="FlfiPi71Q3l0wAVPNReg-5" value="«Annotation»&lt;br&gt;&lt;b&gt;AppIf_Input&lt;/b&gt;" style="html=1;dropTarget=0;whiteSpace=wrap;" vertex="1" parent="1">
          <mxGeometry x="306" y="710" width="150" height="150" as="geometry" />
        </mxCell>
        <mxCell id="FlfiPi71Q3l0wAVPNReg-6" value="" style="shape=module;jettyWidth=8;jettyHeight=4;" vertex="1" parent="FlfiPi71Q3l0wAVPNReg-5">
          <mxGeometry x="1" width="20" height="20" relative="1" as="geometry">
            <mxPoint x="-27" y="7" as="offset" />
          </mxGeometry>
        </mxCell>
        <mxCell id="FlfiPi71Q3l0wAVPNReg-7" value="«Annotation»&lt;br&gt;&lt;b&gt;LCD&lt;br&gt;&lt;/b&gt;" style="html=1;dropTarget=0;whiteSpace=wrap;" vertex="1" parent="1">
          <mxGeometry x="43" y="710" width="250" height="150" as="geometry" />
        </mxCell>
        <mxCell id="FlfiPi71Q3l0wAVPNReg-8" value="" style="shape=module;jettyWidth=8;jettyHeight=4;" vertex="1" parent="FlfiPi71Q3l0wAVPNReg-7">
          <mxGeometry x="1" width="20" height="20" relative="1" as="geometry">
            <mxPoint x="-27" y="7" as="offset" />
          </mxGeometry>
        </mxCell>
        <mxCell id="FlfiPi71Q3l0wAVPNReg-9" value="«Annotation»&lt;br&gt;&lt;b&gt;Real Time Clock&lt;/b&gt;" style="html=1;dropTarget=0;whiteSpace=wrap;" vertex="1" parent="1">
          <mxGeometry x="690" y="400" width="130" height="130" as="geometry" />
        </mxCell>
        <mxCell id="FlfiPi71Q3l0wAVPNReg-10" value="" style="shape=module;jettyWidth=8;jettyHeight=4;" vertex="1" parent="FlfiPi71Q3l0wAVPNReg-9">
          <mxGeometry x="1" width="20" height="20" relative="1" as="geometry">
            <mxPoint x="-27" y="7" as="offset" />
          </mxGeometry>
        </mxCell>
        <mxCell id="FlfiPi71Q3l0wAVPNReg-31" value="&lt;p style=&quot;margin:0px;margin-top:4px;text-align:center;&quot;&gt;&lt;i&gt;&amp;lt;&amp;lt;Interface&amp;gt;&amp;gt;&lt;/i&gt;&lt;br&gt;&lt;b&gt;DataTime&lt;/b&gt;&lt;/p&gt;&lt;hr size=&quot;1&quot;&gt;&lt;p style=&quot;margin:0px;margin-left:4px;&quot;&gt;&lt;br&gt;&lt;/p&gt;" style="verticalAlign=top;align=left;overflow=fill;fontSize=12;fontFamily=Helvetica;html=1;whiteSpace=wrap;" vertex="1" parent="1">
          <mxGeometry x="76" y="560" width="120" height="60" as="geometry" />
        </mxCell>
        <mxCell id="FlfiPi71Q3l0wAVPNReg-33" value="Use" style="endArrow=open;endSize=12;dashed=1;html=1;rounded=0;exitX=0.25;exitY=0;exitDx=0;exitDy=0;entryX=0.25;entryY=1;entryDx=0;entryDy=0;" edge="1" parent="1" source="FlfiPi71Q3l0wAVPNReg-7" target="FlfiPi71Q3l0wAVPNReg-31">
          <mxGeometry width="160" relative="1" as="geometry">
            <mxPoint x="310" y="720" as="sourcePoint" />
            <mxPoint x="470" y="720" as="targetPoint" />
          </mxGeometry>
        </mxCell>
        <mxCell id="FlfiPi71Q3l0wAVPNReg-34" value="" style="endArrow=block;dashed=1;endFill=0;endSize=12;html=1;rounded=0;exitX=0.25;exitY=1;exitDx=0;exitDy=0;entryX=0.5;entryY=0;entryDx=0;entryDy=0;" edge="1" parent="1" source="FlfiPi71Q3l0wAVPNReg-3" target="FlfiPi71Q3l0wAVPNReg-31">
          <mxGeometry width="160" relative="1" as="geometry">
            <mxPoint x="310" y="720" as="sourcePoint" />
            <mxPoint x="470" y="720" as="targetPoint" />
          </mxGeometry>
        </mxCell>
        <mxCell id="FlfiPi71Q3l0wAVPNReg-35" value="&lt;p style=&quot;margin:0px;margin-top:4px;text-align:center;&quot;&gt;&lt;i&gt;&amp;lt;&amp;lt;Interface&amp;gt;&amp;gt;&lt;/i&gt;&lt;br&gt;&lt;b&gt;TimefromRTC&lt;/b&gt;&lt;/p&gt;&lt;hr size=&quot;1&quot;&gt;&lt;p style=&quot;margin:0px;margin-left:4px;&quot;&gt;&lt;br&gt;&lt;/p&gt;" style="verticalAlign=top;align=left;overflow=fill;fontSize=12;fontFamily=Helvetica;html=1;whiteSpace=wrap;" vertex="1" parent="1">
          <mxGeometry x="510" y="400" width="120" height="60" as="geometry" />
        </mxCell>
        <mxCell id="FlfiPi71Q3l0wAVPNReg-36" value="&lt;p style=&quot;margin:0px;margin-top:4px;text-align:center;&quot;&gt;&lt;i&gt;&amp;lt;&amp;lt;Interface&amp;gt;&amp;gt;&lt;/i&gt;&lt;br&gt;&lt;b&gt;DatefromRTC&lt;/b&gt;&lt;/p&gt;&lt;hr size=&quot;1&quot;&gt;&lt;p style=&quot;margin:0px;margin-left:4px;&quot;&gt;&lt;br&gt;&lt;/p&gt;" style="verticalAlign=top;align=left;overflow=fill;fontSize=12;fontFamily=Helvetica;html=1;whiteSpace=wrap;" vertex="1" parent="1">
          <mxGeometry x="510" y="473" width="120" height="60" as="geometry" />
        </mxCell>
        <mxCell id="FlfiPi71Q3l0wAVPNReg-37" value="Use" style="endArrow=open;endSize=12;dashed=1;html=1;rounded=0;exitX=1;exitY=0.25;exitDx=0;exitDy=0;entryX=0;entryY=0.5;entryDx=0;entryDy=0;" edge="1" parent="1" source="FlfiPi71Q3l0wAVPNReg-3" target="FlfiPi71Q3l0wAVPNReg-35">
          <mxGeometry width="160" relative="1" as="geometry">
            <mxPoint x="310" y="630" as="sourcePoint" />
            <mxPoint x="470" y="630" as="targetPoint" />
          </mxGeometry>
        </mxCell>
        <mxCell id="FlfiPi71Q3l0wAVPNReg-38" value="Use" style="endArrow=open;endSize=12;dashed=1;html=1;rounded=0;exitX=1;exitY=0.75;exitDx=0;exitDy=0;entryX=-0.007;entryY=0.353;entryDx=0;entryDy=0;entryPerimeter=0;" edge="1" parent="1" target="FlfiPi71Q3l0wAVPNReg-36">
          <mxGeometry width="160" relative="1" as="geometry">
            <mxPoint x="425" y="491" as="sourcePoint" />
            <mxPoint x="510" y="486" as="targetPoint" />
          </mxGeometry>
        </mxCell>
        <mxCell id="FlfiPi71Q3l0wAVPNReg-39" value="" style="endArrow=block;dashed=1;endFill=0;endSize=12;html=1;rounded=0;exitX=0;exitY=0.25;exitDx=0;exitDy=0;entryX=1;entryY=0.25;entryDx=0;entryDy=0;" edge="1" parent="1" source="FlfiPi71Q3l0wAVPNReg-9" target="FlfiPi71Q3l0wAVPNReg-35">
          <mxGeometry width="160" relative="1" as="geometry">
            <mxPoint x="310" y="630" as="sourcePoint" />
            <mxPoint x="470" y="630" as="targetPoint" />
          </mxGeometry>
        </mxCell>
        <mxCell id="FlfiPi71Q3l0wAVPNReg-41" value="" style="endArrow=block;dashed=1;endFill=0;endSize=12;html=1;rounded=0;exitX=0;exitY=0.75;exitDx=0;exitDy=0;entryX=1;entryY=0.75;entryDx=0;entryDy=0;" edge="1" parent="1" source="FlfiPi71Q3l0wAVPNReg-9" target="FlfiPi71Q3l0wAVPNReg-36">
          <mxGeometry width="160" relative="1" as="geometry">
            <mxPoint x="310" y="630" as="sourcePoint" />
            <mxPoint x="470" y="630" as="targetPoint" />
          </mxGeometry>
        </mxCell>
        <mxCell id="FlfiPi71Q3l0wAVPNReg-42" value="&lt;p style=&quot;margin:0px;margin-top:4px;text-align:center;&quot;&gt;&lt;i&gt;&amp;lt;&amp;lt;Interface&amp;gt;&amp;gt;&lt;/i&gt;&lt;br&gt;&lt;b&gt;Buttons&lt;/b&gt;&lt;/p&gt;&lt;hr size=&quot;1&quot;&gt;&lt;p style=&quot;margin:0px;margin-left:4px;&quot;&gt;&lt;br&gt;&lt;/p&gt;" style="verticalAlign=top;align=left;overflow=fill;fontSize=12;fontFamily=Helvetica;html=1;whiteSpace=wrap;" vertex="1" parent="1">
          <mxGeometry x="320" y="590" width="120" height="60" as="geometry" />
        </mxCell>
        <mxCell id="FlfiPi71Q3l0wAVPNReg-45" value="Use" style="endArrow=open;endSize=12;dashed=1;html=1;rounded=0;exitX=0.879;exitY=0.993;exitDx=0;exitDy=0;exitPerimeter=0;" edge="1" parent="1" source="FlfiPi71Q3l0wAVPNReg-3" target="FlfiPi71Q3l0wAVPNReg-42">
          <mxGeometry width="160" relative="1" as="geometry">
            <mxPoint x="310" y="630" as="sourcePoint" />
            <mxPoint x="470" y="630" as="targetPoint" />
          </mxGeometry>
        </mxCell>
        <mxCell id="FlfiPi71Q3l0wAVPNReg-46" value="" style="endArrow=block;dashed=1;endFill=0;endSize=12;html=1;rounded=0;exitX=0.5;exitY=0;exitDx=0;exitDy=0;entryX=0.5;entryY=1;entryDx=0;entryDy=0;" edge="1" parent="1" source="FlfiPi71Q3l0wAVPNReg-5" target="FlfiPi71Q3l0wAVPNReg-42">
          <mxGeometry width="160" relative="1" as="geometry">
            <mxPoint x="310" y="630" as="sourcePoint" />
            <mxPoint x="470" y="630" as="targetPoint" />
          </mxGeometry>
        </mxCell>
      </root>
    </mxGraphModel>
  </diagram>
</mxfile>
